#!OML:ASF E:/inclinewalkrobotboard/Project1/Captureday1/Session1/subject1.ASF
:FULLY-SPECIFIED
:DEGREES
63
root 0 0 0 10.28784419218679 25.089015602224475 -11.47346332881405
lowerback 10.121311395872993 2.7706747311078392 0.5027017881324185
upperback 1.3327905137581646 3.5353788763147067 -1.7955466323445188
thorax -4.235183973073176 1.8280683906511825 -2.44891104565436
lowerneck -9.425046365073685 -5.232688637102198 -7.713612094801917
upperneck 2.992821045062957 -6.12722919402174 5.543112875828827
head 3.5231199979345567 -2.874980172817743 2.729603725622515
rclavicle -1.1528473822995063E-14 4.905473372664008E-16
rhumerus 8.754770490284923 -13.992877722359589 -63.66921510185155
rradius 20.653774787101682
rwrist 55.45583092279321
rhand -7.915034593218305 21.51267040006987
rfingers 7.125019999999925
rthumb 17.987256990762635 -8.211662477008538
lclavicle -6.277347598121452E-15 6.3535106919900855E-15
lhumerus -18.230055847270336 8.932575891360827 72.34089207428826
lradius 36.65125306982115
lwrist -36.68057620860574
lhand -10.586585099952787 14.393131198852341
lfingers 7.053041127305683
lthumb 15.13487202202769 71.3741063364957
rfemur 11.794089795302828 7.598464557044158 36.06858641312977
rtibia 27.757599775076706
rfoot -12.159619086790595 -2.1383161475167416
rtoes 0.20511385576234176
lfemur -26.980590215770512 -2.836966415218424 -18.649280915347553
ltibia 23.183847171033893
lfoot -9.363916669584128 5.015718796949116
ltoes 13.237737618789431
64
root 0 0 0 10.25023721593888 25.07785348293306 -11.464600998222265
lowerback 10.135441219655638 2.775963238704897 0.4491306234677448
upperback 1.3322803122747828 3.5362592672615367 -1.805775094077168
thorax -4.2442906445320014 1.8284952773504877 -2.4289129792404793
lowerneck -9.46697418497731 -5.244023188717829 -7.717467302407372
upperneck 3.0230846223809156 -6.14453264396224 5.5388167737425285
head 3.540832695547191 -2.8824259870782796 2.7257716848659648
rclavicle -1.1419990245413511E-14 3.9371598623089305E-16
rhumerus 8.021073464557897 -13.885353325572927 -64.15761117914255
rradius 20.47633210631794
rwrist 55.700631352469884
rhand -7.844995865903574 21.58004963111336
rfingers 7.125019999999923
rthumb 18.05642049166969 -8.13849578970504
lclavicle -6.4232437764271716E-15 6.427295336629631E-15
lhumerus -19.053649841137222 8.270298719207098 73.05428789147935
lradius 36.43801036691936
lwrist -36.938328118453796
lhand -10.578920378655924 14.429368640533596
lfingers 7.052831189701972
lthumb 15.141999888925817 71.92734302275844
rfemur 8.157478196443222 6.774707686750301 35.15632184389868
rtibia 30.489921426083033
rfoot -8.69820058194145 -1.8288855195078213
rtoes 2.9102770680097274
lfemur -22.696045046637543 -2.135223365128038 -21.777648540934884
ltibia 26.43348143540559
lfoot -9.571066685714165 2.3930198957724063
ltoes 13.486656025051964
65
root 0 0 0 10.244051974728874 25.089317665203883 -11.455746823393968
lowerback 10.167849662642498 2.778274428706126 0.3791979118728226
upperback 1.335885094877843 3.5303561318963093 -1.8143972697031274
thorax -4.259875445351021 1.8256751794046395 -2.397250309455355
lowerneck -9.514389658948904 -5.26408404667125 -7.728367387355748
upperneck 3.0438772865484065 -6.173857280686565 5.532798680725167
head 3.5562555044631887 -2.8955254918569016 2.721290688032979
rclavicle -1.1234163821860216E-14 2.8209608397000305E-16
rhumerus 7.148495110324834 -13.782924491548924 -64.76633584878233
rradius 20.321765402818592
rwrist 55.98038528039099
rhand -7.7841927011511025 21.656466211440737
rfingers 7.12501999999992
rthumb 18.117182096562196 -8.054487931815018
lclavicle -6.519255850865805E-15 6.494227367139911E-15
lhumerus -20.00964074153337 7.58321125798296 73.85222040986925
lradius 36.23241796928149
lwrist -37.15844908341698
lhand -10.577000120098784 14.48834247961583
lfingers 7.053313419505947
lthumb 15.14592984892385 72.28417810974474
rfemur 1.3258017837482718 5.505737380833808 33.36580946372858
rtibia 35.24205644960958
rfoot -3.2798691325098943 -1.6385768829265484
rtoes 8.074655711165295
lfemur -18.072995501879348 -1.8288684238651571 -24.215077054915866
ltibia 27.920368127279623
lfoot -10.50527809273682 1.1294095851707322
ltoes 13.341045358258274
66
root 0 0 0 10.309537262013109 25.199447058392952 -11.464485241951918
lowerback 10.17729993958859 2.757522965716272 0.22654824541659302
upperback 1.329458125763777 3.483924540907795 -1.8178356768824195
thorax -4.278271517040473 1.8032499355378715 -2.3080585939171776
lowerneck -9.586650061045475 -5.336867577906169 -7.777161795044743
upperneck 3.0917766605456993 -6.287706115668764 5.543831425267258
head 3.584254307490748 -2.9468377552375005 2.7203538792106645
rclavicle -1.088588175880321E-14 1.8677354689497505E-16
rhumerus 5.9295380563277815 -13.710886148654447 -65.75903052258143
rradius 20.34539948060359
rwrist 56.309798539063436
rhand -7.765369097053517 21.768275754637727
rfingers 7.125019999999916
rthumb 18.138192547398845 -7.928225208783644
lclavicle -6.667932509798598E-15 6.6370626354522825E-15
lhumerus -21.26105850869284 6.857370450932354 74.81980568323671
lradius 36.497631190109225
lwrist -37.12001036200772
lhand -10.495968081507055 14.563713477429065
lfingers 7.053889019964172
lthumb 15.226248962231564 72.6433767402213
rfemur -6.269972823170981 3.9543781413247974 29.115777037770307
rtibia 47.708800317428555
rfoot 5.061699377497227 -1.4993383632639787
rtoes 14.694240278528431
lfemur -12.187022641230385 -1.9257272509840375 -26.494886662131854
ltibia 27.367444717118467
lfoot -13.252081913343881 1.5857699732444956
ltoes 12.628230336915156
67
root 0 0 0 10.23539587481382 25.232132700978564 -11.441376388425773
lowerback 10.026418862714499 2.7209126526414504 0.07634492011304683
upperback 1.2821440529666996 3.4230887507081964 -1.8254116670445013
thorax -4.252971752462681 1.7734076822855922 -2.2215634946217793
lowerneck -9.657291491668213 -5.4181095503317565 -7.820318991373535
upperneck 3.2485944444299264 -6.429687238065685 5.587815241437842
head 3.646494116245915 -3.008583454460367 2.7268518847185934
rclavicle -1.0813071781348273E-14 2.1631860570755586E-16
rhumerus 5.531135237680338 -13.78157229010232 -66.1752880012274
rradius 20.49584195643334
rwrist 56.39616398471395
rhand -7.8124789260393275 21.809225706091336
rfingers 7.125019999999915
rthumb 18.09336438423526 -7.880469340617054
lclavicle -7.078832639246414E-15 6.864127144489895E-15
lhumerus -21.96869704831013 6.537072136738459 75.29498432947504
lradius 36.904149687511065
lwrist -36.93416993296432
lhand -10.316341418290957 14.578963622337616
lfingers 7.053257349014708
lthumb 15.397357089641005 72.62972667289421
rfemur -7.91983260035016 2.944385035928807 26.265856533873865
rtibia 59.034653893827006
rfoot 8.990512797604165 -1.4183847180306888
rtoes 16.08401897560031
lfemur -9.751163439825035 -2.040776852998404 -27.398655922151477
ltibia 26.585663530491463
lfoot -15.067253400362725 2.349740306245203
ltoes 12.242800860159232
68
root 0 0 0 10.000222886214502 25.137799073810047 -11.359948832612524
lowerback 9.76363613276959 2.6654758091224906 -0.11083522946833568
upperback 1.2056055625023598 3.3382795513022425 -1.8381564586981622
thorax -4.199420703971264 1.7313148003032313 -2.1153677057834033
lowerneck -9.758538266516025 -5.526474667234718 -7.862634922224672
upperneck 3.5133717468786996 -6.623195378023953 5.667198064360986
head 3.7495785199263145 -3.091842179964571 2.7396567048456233
rclavicle -1.079703958253252E-14 2.876927336528508E-16
rhumerus 5.408138058106555 -13.88111538071328 -66.33619500184504
rradius 20.574564876631193
rwrist 56.44857984199648
rhand -7.871031671963115 21.811095351754076
rfingers 7.125019999999915
rthumb 18.037073852804493 -7.877022775258386
lclavicle -7.505749554754993E-15 7.18516791434871E-15
lhumerus -22.534486360711302 6.293443427819803 75.6780868116298
lradius 37.311982602639794
lwrist -36.78312492036683
lhand -10.14596897454117 14.564663924661136
lfingers 7.05214064543929
lthumb 15.557713719267284 72.48465510355395
rfemur -9.398708467188765 1.9480099000728606 24.423800561141555
rtibia 67.17336227838304
rfoot 11.230882994772621 -1.4047900387369392
rtoes 16.179100034257978
lfemur -8.393146299370608 -2.106809912374053 -27.902110186231624
ltibia 25.96718284026566
lfoot -16.256413527590134 2.8859517080760586
ltoes 11.948282689421823
